<?xml version="1.0" encoding="utf-8"?>
<!-- Generator: Adobe Illustrator 19.1.0, SVG Export Plug-In . SVG Version: 6.00 Build 0)  -->
<svg version="1.1" id="Layer_1" xmlns="http://www.w3.org/2000/svg" xmlns:xlink="http://www.w3.org/1999/xlink" x="0px" y="0px"
	 viewBox="-278 366 55 62" style="enable-background:new -278 366 55 62;" xml:space="preserve">
<style type="text/css">
	.st0{fill:#FFFFFF;}
</style>
<g>
	<path class="st0" d="M-267.6,386.9c0,9.3,7.6,16.9,16.9,16.9c9.3,0,16.9-7.6,16.9-16.9c0-9.3-7.6-16.9-16.9-16.9
		C-260,370-267.6,377.6-267.6,386.9z M-265.1,386.9c0-7.9,6.4-14.3,14.3-14.3c7.9,0,14.3,6.4,14.3,14.3c0,7.9-6.4,14.3-14.3,14.3
		C-258.7,401.2-265.1,394.8-265.1,386.9z"/>
	<path class="st0" d="M-252.5,380L-252.5,380l0.1-0.1c0.1,0,0.1-0.1,0.2-0.1c0.1,0,0.2-0.1,0.2-0.1l0.1,0c0,0,0,0,0,0l0,0l0,0
		c0.3-0.1,0.6-0.2,1-0.2c1.1,0,2.2,0.6,2.8,1.6c0.3,0.5,0.6,1.8,0.6,1.8c0.2,0.9,0.4,1.7,0.9,2.5c0.5,0.8,1,1.5,1.7,2.1
		c0,0,0.9,1,1.2,1.5c0.7,1.4,0.4,3.2-0.9,4c0,0,0,0,0,0c-0.1,0-0.1,0.1-0.2,0.1c-0.1,0-0.2,0.1-0.2,0.1l-0.2,0.1l0,0
		c-0.3,0.1-0.6,0.2-1,0.2c0,0,0,0,0,0c-1.1,0-2.2-0.6-2.8-1.6c-0.3-0.5-0.6-1.8-0.6-1.8c-0.2-0.9-0.4-1.7-0.9-2.5
		c-0.5-0.8-1-1.5-1.7-2.1c0,0-0.9-1-1.2-1.5C-254,382.7-253.6,380.9-252.5,380z"/>
	<path class="st0" d="M-255.3,387.6c1.6,0,3,1.3,3,3c0,1.6-1.3,3-3,3c-1.6,0-3-1.3-3-3C-258.3,388.9-256.9,387.6-255.3,387.6z"/>
</g>
<g>
	<path class="st0" d="M-258.4,412.2h-8c-0.2,0-0.4,0.2-0.4,0.4v1.4c0,0.2,0.2,0.4,0.4,0.4h2.8v7.9c0,0.2,0.2,0.4,0.4,0.4h1.6
		c0.2,0,0.4-0.2,0.4-0.4v-7.9h2.8c0.2,0,0.4-0.2,0.4-0.4v-1.4C-258,412.4-258.2,412.2-258.4,412.2z"/>
	<path class="st0" d="M-246.9,412.2h-1.6c-0.2,0-0.4,0.2-0.4,0.4v3.7h-4.1v-3.7c0-0.2-0.2-0.4-0.4-0.4h-1.6c-0.2,0-0.4,0.2-0.4,0.4
		v9.8c0,0.2,0.2,0.4,0.4,0.4h1.6c0.2,0,0.4-0.2,0.4-0.4v-3.8h4.1v3.8c0,0.2,0.2,0.4,0.4,0.4h1.6c0.2,0,0.4-0.2,0.4-0.4v-9.8
		C-246.5,412.4-246.7,412.2-246.9,412.2z"/>
	<path class="st0" d="M-238.7,416.4c-0.6,0-1.1,0.5-1.1,1.1c0,0.6,0.5,1.1,1.1,1.1h1.7c0.6,0,1.1-0.5,1.1-1.1c0-0.6-0.5-1.1-1.1-1.1
		H-238.7z"/>
	<path class="st0" d="M-271,413.5c-0.4-0.9-0.9-1.3-1.6-1.3l0,0l0,0c-0.8,0-1.2,0.4-1.6,1.3l-3.7,8.7c-0.1,0.1,0,0.3,0,0.4
		c0.1,0.1,0.2,0.2,0.3,0.2h1.6c0.2,0,0.3-0.1,0.4-0.3l0.8-2.1h4.3l0.9,2.1c0.1,0.2,0.2,0.3,0.4,0.3h1.6c0.1,0,0.3-0.1,0.3-0.2
		c0.1-0.1,0.1-0.3,0-0.4L-271,413.5z M-271.3,418.3h-2.6l1.3-3.1L-271.3,418.3z"/>
	<path class="st0" d="M-223.6,422.2l-2.1-3.1l0.1-0.1c1.4-0.6,2.1-1.7,2.1-3.3c0-1-0.3-1.8-0.9-2.4c-0.7-0.7-1.8-1.1-3.1-1.1l-2.9,0
		c-0.6,0-1.9,0.3-1.9,2v8.2c0,0.2,0.2,0.4,0.4,0.4h1.6c0.2,0,0.4-0.2,0.4-0.4v-2.9h1.7l2.1,3.2c0.1,0.1,0.2,0.2,0.3,0.2h1.9
		c0.2,0,0.3-0.1,0.4-0.2C-223.5,422.5-223.5,422.3-223.6,422.2z M-226,415.9c0,0.9-0.6,1.4-1.7,1.4h-1.8c-0.4,0-0.4-0.3-0.4-0.4
		v-2.1c0-0.1,0.1-0.4,0.4-0.4l1.8,0C-226.6,414.5-226,415-226,415.9z"/>
	<path class="st0" d="M-235.6,420.6h-4.8c0,0-0.4,0-0.4-0.4l0-5.2c0-0.2,0.1-0.3,0.2-0.4c0.1-0.1,0.2-0.1,0.3-0.1h4.7
		c0.2,0,0.4-0.2,0.4-0.4v-1.4c0-0.2-0.2-0.4-0.4-0.4l-5.7,0c-1.1,0.1-1.8,0.6-1.9,1.6l0,7.3l0,0c0.1,1,0.8,1.6,1.9,1.7l0,0l5.7,0
		c0.2,0,0.4-0.2,0.4-0.4v-1.4C-235.2,420.8-235.4,420.6-235.6,420.6z"/>
</g>
</svg>
